<svg version="1.1" id="Layer_1" xmlns="http://www.w3.org/2000/svg" xmlns:xlink="http://www.w3.org/1999/xlink" x="0px" y="0px"
	 width="256px" height="115px" viewBox="0 0 256 115" enable-background="new 0 0 256 115" xml:space="preserve">
<g>
	<path fill="#FFFFFF" d="M18.736,4.46v66.266c0,3.11,0.633,5.276,1.902,6.504c1.268,1.227,2.964,1.841,5.092,1.841
		c2.126,0,3.823-0.614,5.093-1.841c1.268-1.228,1.902-3.394,1.902-6.504V4.46h12.762v65.406c0,6.955-1.699,12.293-5.093,16.015
		C37,89.605,31.99,91.464,25.363,91.464c-6.627,0-11.639-1.859-15.033-5.583c-3.396-3.722-5.093-9.06-5.093-16.015V4.46H18.736z"/>
	<polygon fill="#FFFFFF" points="64.208,28.144 64.208,90.361 52.06,90.361 52.06,4.46 68.995,4.46 82.861,55.877 82.861,4.46 
		94.887,4.46 94.887,90.361 81.021,90.361 	"/>
	<rect x="101.569" y="4.46" fill="#FFFFFF" width="13.499" height="85.899"/>
	<path fill="#FFFFFF" d="M121.27,25.077c0-6.953,1.758-12.292,5.277-16.015c3.516-3.721,8.59-5.583,15.217-5.583
		c6.626,0,11.697,1.862,15.216,5.583c3.517,3.724,5.277,9.062,5.277,16.015v44.667c0,6.955-1.761,12.293-5.277,16.014
		c-3.519,3.725-8.59,5.585-15.216,5.585c-6.627,0-11.701-1.86-15.217-5.585c-3.519-3.721-5.277-9.059-5.277-16.014V25.077z
		 M134.769,70.603c0,3.11,0.633,5.298,1.901,6.565c1.268,1.269,2.965,1.902,5.094,1.902c2.126,0,3.822-0.634,5.092-1.902
		c1.268-1.268,1.902-3.455,1.902-6.565V24.217c0-3.108-0.635-5.295-1.902-6.565c-1.27-1.268-2.966-1.902-5.092-1.902
		c-2.129,0-3.826,0.634-5.094,1.902c-1.269,1.27-1.901,3.457-1.901,6.565V70.603z"/>
	<path fill="#FFFFFF" d="M181.345,4.46v66.266c0,3.11,0.634,5.276,1.902,6.504c1.268,1.227,2.964,1.841,5.093,1.841
		c2.127,0,3.822-0.614,5.092-1.841c1.269-1.228,1.902-3.394,1.902-6.504V4.46h12.763v65.406c0,6.955-1.698,12.293-5.093,16.015
		c-3.396,3.724-8.406,5.583-15.032,5.583c-6.627,0-11.64-1.859-15.032-5.583c-3.396-3.722-5.094-9.06-5.094-16.015V4.46H181.345z"/>
	<polygon fill="#FFFFFF" points="227.788,40.661 246.318,40.661 246.318,52.932 227.788,52.932 227.788,78.088 251.104,78.088 
		251.104,90.36 214.29,90.36 214.29,4.46 251.104,4.46 251.104,16.732 227.788,16.732 	"/>
	<path fill="#FFFFFF" d="M150.339,102.976c0-3.988-3.233-7.222-7.222-7.222c-3.989,0-7.224,3.233-7.224,7.222
		c0,3.989,3.234,7.223,7.224,7.223C147.106,110.199,150.339,106.965,150.339,102.976"/>
</g>
</svg>
