<svg version="1.1" id="Layer_1" xmlns="http://www.w3.org/2000/svg" xmlns:xlink="http://www.w3.org/1999/xlink" x="0px" y="0px"
	 width="256.667px" height="114.667px" viewBox="0 0 256.667 114.667" enable-background="new 0 0 256.667 114.667"
	 xml:space="preserve">
<g>
	<path fill="#B8003F" d="M18.736,4.294V70.56c0,3.11,0.633,5.276,1.902,6.504c1.268,1.227,2.964,1.841,5.092,1.841
		c2.126,0,3.823-0.614,5.093-1.841c1.268-1.228,1.902-3.394,1.902-6.504V4.294h12.762V69.7c0,6.955-1.699,12.293-5.093,16.015
		C37,89.438,31.99,91.298,25.363,91.298c-6.627,0-11.639-1.859-15.033-5.583c-3.396-3.722-5.093-9.06-5.093-16.015V4.294H18.736z"/>
	<polygon fill="#B8003F" points="64.208,27.978 64.208,90.194 52.06,90.194 52.06,4.294 68.995,4.294 82.861,55.711 82.861,4.294 
		94.887,4.294 94.887,90.194 81.021,90.194 	"/>
	<rect x="101.569" y="4.294" fill="#B8003F" width="13.499" height="85.899"/>
	<path fill="#B8003F" d="M121.27,24.91c0-6.953,1.758-12.292,5.277-16.015c3.516-3.721,8.59-5.583,15.217-5.583
		c6.626,0,11.697,1.862,15.216,5.583c3.517,3.724,5.277,9.062,5.277,16.015v44.667c0,6.955-1.761,12.293-5.277,16.014
		c-3.519,3.725-8.59,5.585-15.216,5.585c-6.627,0-11.701-1.86-15.217-5.585c-3.519-3.721-5.277-9.059-5.277-16.014V24.91z
		 M134.769,70.437c0,3.11,0.633,5.298,1.901,6.565c1.268,1.269,2.965,1.902,5.094,1.902c2.126,0,3.822-0.634,5.092-1.902
		c1.268-1.268,1.902-3.455,1.902-6.565V24.05c0-3.108-0.635-5.295-1.902-6.565c-1.27-1.268-2.966-1.902-5.092-1.902
		c-2.129,0-3.826,0.634-5.094,1.902c-1.269,1.27-1.901,3.457-1.901,6.565V70.437z"/>
	<path fill="#B8003F" d="M181.345,4.294V70.56c0,3.11,0.634,5.276,1.902,6.504c1.268,1.227,2.964,1.841,5.093,1.841
		c2.127,0,3.822-0.614,5.092-1.841c1.269-1.228,1.902-3.394,1.902-6.504V4.294h12.763V69.7c0,6.955-1.698,12.293-5.093,16.015
		c-3.396,3.724-8.406,5.583-15.032,5.583c-6.627,0-11.64-1.859-15.032-5.583c-3.396-3.722-5.094-9.06-5.094-16.015V4.294H181.345z"
		/>
	<polygon fill="#B8003F" points="227.788,40.495 246.318,40.495 246.318,52.766 227.788,52.766 227.788,77.922 251.104,77.922 
		251.104,90.193 214.29,90.193 214.29,4.294 251.104,4.294 251.104,16.565 227.788,16.565 	"/>
	<path fill="#B8003F" d="M150.339,102.81c0-3.988-3.233-7.222-7.222-7.222c-3.989,0-7.224,3.233-7.224,7.222
		c0,3.989,3.234,7.223,7.224,7.223C147.106,110.032,150.339,106.799,150.339,102.81"/>
</g>
</svg>
